<svg xmlns="http://www.w3.org/2000/svg" viewBox="0 0 32 32"><rect width="32" height="32" rx="6" fill="#080d0f"/><g color="#f1f3f3" transform="translate(1.92 1.92) scale(0.88)"><clipPath id="s"><path transform="translate(2.6 2.4)" d="M6 25V12a10 10 0 0 1 20 0v13q-3.333 5.6-6.667 0-3.333 5.6-6.666 0-3.333 5.6-6.667 0Z" /></clipPath><path clip-path="url(#s)" d="M-32.00 32L0.00 0M-28.80 32L3.20 0M-25.60 32L6.40 0M-22.40 32L9.60 0M-19.20 32L12.80 0M-16.00 32L16.00 0M-12.80 32L19.20 0M-9.60 32L22.40 0M-6.40 32L25.60 0M-3.20 32L28.80 0M-0.00 32L32.00 0M3.20 32L35.20 0M6.40 32L38.40 0M9.60 32L41.60 0M12.80 32L44.80 0M16.00 32L48.00 0M19.20 32L51.20 0M22.40 32L54.40 0M25.60 32L57.60 0M28.80 32L60.80 0M32.00 32L64.00 0M35.20 32L67.20 0M38.40 32L70.40 0M41.60 32L73.60 0M44.80 32L76.80 0M48.00 32L80.00 0M51.20 32L83.20 0M54.40 32L86.40 0M57.60 32L89.60 0M60.80 32L92.80 0" stroke="#6d74f5" stroke-width="1.1" fill="none" /><path transform="translate(-0.9 -0.4)" d="M6 25V12a10 10 0 0 1 20 0v13q-3.333 5.6-6.667 0-3.333 5.6-6.666 0-3.333 5.6-6.667 0Z" fill="currentColor" /><path d="M9.9 14.2 11.9 12 13.9 14.2M16.3 14.2 18.3 12 20.3 14.2" fill="none" stroke="#6d74f5" stroke-width="1.9" stroke-linecap="round" stroke-linejoin="round" /></g></svg>
